<svg width="19" height="20" viewBox="0 0 19 20" fill="none" xmlns="http://www.w3.org/2000/svg">
<path d="M17.1841 0.887354C17.1464 0.888546 17.1088 0.891845 17.0714 0.897237H12.1439C12.0098 0.89534 11.8767 0.920115 11.7522 0.970121C11.6278 1.02013 11.5145 1.09437 11.419 1.18853C11.3235 1.28269 11.2477 1.39489 11.1959 1.51861C11.1441 1.64234 11.1175 1.77511 11.1175 1.90923C11.1175 2.04334 11.1441 2.17612 11.1959 2.29984C11.2477 2.42357 11.3235 2.53577 11.419 2.62993C11.5145 2.72409 11.6278 2.79833 11.7522 2.84833C11.8767 2.89834 12.0098 2.92312 12.1439 2.92122H14.7608L5.35644 12.3256C5.25931 12.4189 5.18177 12.5306 5.12835 12.6542C5.07494 12.7778 5.04672 12.9108 5.04535 13.0454C5.04398 13.18 5.06948 13.3136 5.12038 13.4382C5.17127 13.5629 5.24652 13.6761 5.34173 13.7713C5.43693 13.8666 5.55018 13.9418 5.67484 13.9927C5.79949 14.0436 5.93305 14.0691 6.06768 14.0677C6.20232 14.0664 6.33533 14.0381 6.45892 13.9847C6.58251 13.9313 6.69421 13.8538 6.78746 13.7566L16.1919 4.35224V6.96918C16.19 7.10328 16.2147 7.23642 16.2647 7.36087C16.3147 7.48531 16.389 7.59857 16.4832 7.69408C16.5773 7.78958 16.6895 7.86541 16.8132 7.91717C16.937 7.96893 17.0697 7.99559 17.2038 7.99559C17.338 7.99559 17.4707 7.96893 17.5945 7.91717C17.7182 7.86541 17.8304 7.78958 17.9245 7.69408C18.0187 7.59857 18.0929 7.48531 18.143 7.36087C18.193 7.23642 18.2177 7.10328 18.2158 6.96918V2.0377C18.236 1.892 18.2241 1.74366 18.1811 1.603C18.1381 1.46235 18.0649 1.33276 17.9667 1.22326C17.8685 1.11376 17.7476 1.02698 17.6125 0.968973C17.4773 0.910962 17.3311 0.883109 17.1841 0.887354ZM2.02398 0.897237C0.917812 0.897237 0 1.81505 0 2.92122V17.0891C0 18.1953 0.917812 19.1131 2.02398 19.1131H16.1919C17.298 19.1131 18.2158 18.1953 18.2158 17.0891V11.0171C18.2177 10.883 18.193 10.7499 18.143 10.6255C18.0929 10.501 18.0187 10.3878 17.9245 10.2923C17.8304 10.1968 17.7182 10.1209 17.5945 10.0692C17.4707 10.0174 17.338 9.99074 17.2038 9.99074C17.0697 9.99074 16.937 10.0174 16.8132 10.0692C16.6895 10.1209 16.5773 10.1968 16.4832 10.2923C16.389 10.3878 16.3147 10.501 16.2647 10.6255C16.2147 10.7499 16.19 10.883 16.1919 11.0171V17.0891H2.02398V2.92122H8.09593C8.23003 2.92312 8.36317 2.89834 8.48761 2.84833C8.61206 2.79833 8.72532 2.72409 8.82082 2.62993C8.91632 2.53577 8.99216 2.42357 9.04392 2.29984C9.09568 2.17612 9.12233 2.04334 9.12233 1.90923C9.12233 1.77511 9.09568 1.64234 9.04392 1.51861C8.99216 1.39489 8.91632 1.28269 8.82082 1.18853C8.72532 1.09437 8.61206 1.02013 8.48761 0.970121C8.36317 0.920115 8.23003 0.89534 8.09593 0.897237H2.02398Z" fill="black"/>
</svg>
